<svg xmlns="http://www.w3.org/2000/svg" width="780" height="430" viewBox="0 0 780 430">\n<rect width="100%" height="100%" fill="white"/>\n<text x="390.00" y="26.00" font-family="Arial, sans-serif" font-size="16" text-anchor="middle">Registry-guarded calibration on GapBench test800</text>\n<line x1="80.00" y1="45.00" x2="80.00" y2="360.00" stroke="#334155" stroke-width="1.2"/>\n<line x1="80.00" y1="360.00" x2="735.00" y2="360.00" stroke="#334155" stroke-width="1.2"/>\n<rect x="146.17" y="45.00" width="38.00" height="315.00" rx="2" fill="#7c3aed" stroke="#7c3aed"/>\n<text x="165.17" y="39.00" font-family="Arial, sans-serif" font-size="11" text-anchor="middle">56</text>\n<text x="165.17" y="378.00" font-family="Arial, sans-serif" font-size="10" text-anchor="middle">2B</text>\n<rect x="194.17" y="292.50" width="38.00" height="67.50" rx="2" fill="#0f766e" stroke="#0f766e"/>\n<text x="213.17" y="286.50" font-family="Arial, sans-serif" font-size="11" text-anchor="middle">12</text>\n<text x="213.17" y="378.00" font-family="Arial, sans-serif" font-size="10" text-anchor="middle">2C</text>\n<text x="189.17" y="410.00" font-family="Arial, sans-serif" font-size="11" text-anchor="middle">Unsupported FP</text>\n<rect x="364.50" y="331.65" width="38.00" height="28.35" rx="2" fill="#f59e0b" stroke="#f59e0b"/>\n<text x="383.50" y="325.65" font-family="Arial, sans-serif" font-size="11" text-anchor="middle">0.09</text>\n<text x="383.50" y="378.00" font-family="Arial, sans-serif" font-size="10" text-anchor="middle">2B</text>\n<rect x="412.50" y="350.55" width="38.00" height="9.45" rx="2" fill="#f59e0b" stroke="#f59e0b"/>\n<text x="431.50" y="344.55" font-family="Arial, sans-serif" font-size="11" text-anchor="middle">0.03</text>\n<text x="431.50" y="378.00" font-family="Arial, sans-serif" font-size="10" text-anchor="middle">2C</text>\n<text x="407.50" y="410.00" font-family="Arial, sans-serif" font-size="11" text-anchor="middle">Under</text>\n<rect x="582.83" y="79.65" width="38.00" height="280.35" rx="2" fill="#16a34a" stroke="#16a34a"/>\n<text x="601.83" y="73.65" font-family="Arial, sans-serif" font-size="11" text-anchor="middle">0.89</text>\n<text x="601.83" y="378.00" font-family="Arial, sans-serif" font-size="10" text-anchor="middle">2B</text>\n<rect x="630.83" y="63.90" width="38.00" height="296.10" rx="2" fill="#16a34a" stroke="#16a34a"/>\n<text x="649.83" y="57.90" font-family="Arial, sans-serif" font-size="11" text-anchor="middle">0.94</text>\n<text x="649.83" y="378.00" font-family="Arial, sans-serif" font-size="10" text-anchor="middle">2C</text>\n<text x="625.83" y="410.00" font-family="Arial, sans-serif" font-size="11" text-anchor="middle">Harness success</text>\n<text x="25.00" y="215.00" font-family="Arial, sans-serif" font-size="11" text-anchor="middle" transform="rotate(-90 25.00 215.00)">Count for FP; rates scaled to same axis</text>\n</svg>
