<svg xmlns="http://www.w3.org/2000/svg" width="900" height="470" viewBox="0 0 900 470">\n<rect width="100%" height="100%" fill="white"/>\n<line x1="70.00" y1="45.00" x2="70.00" y2="390.00" stroke="#334155" stroke-width="1.2"/>\n<line x1="70.00" y1="390.00" x2="785.00" y2="390.00" stroke="#334155" stroke-width="1.2"/>\n<line x1="65.00" y1="390.00" x2="70.00" y2="390.00" stroke="#334155" stroke-width="1.2"/>\n<text x="60.00" y="394.00" font-family="Arial, sans-serif" font-size="11" text-anchor="end">0.00</text>\n<line x1="70.00" y1="390.00" x2="785.00" y2="390.00" stroke="#e5e7eb" stroke-width="1.2"/>\n<line x1="65.00" y1="303.75" x2="70.00" y2="303.75" stroke="#334155" stroke-width="1.2"/>\n<text x="60.00" y="307.75" font-family="Arial, sans-serif" font-size="11" text-anchor="end">0.25</text>\n<line x1="70.00" y1="303.75" x2="785.00" y2="303.75" stroke="#e5e7eb" stroke-width="1.2"/>\n<line x1="65.00" y1="217.50" x2="70.00" y2="217.50" stroke="#334155" stroke-width="1.2"/>\n<text x="60.00" y="221.50" font-family="Arial, sans-serif" font-size="11" text-anchor="end">0.50</text>\n<line x1="70.00" y1="217.50" x2="785.00" y2="217.50" stroke="#e5e7eb" stroke-width="1.2"/>\n<line x1="65.00" y1="131.25" x2="70.00" y2="131.25" stroke="#334155" stroke-width="1.2"/>\n<text x="60.00" y="135.25" font-family="Arial, sans-serif" font-size="11" text-anchor="end">0.75</text>\n<line x1="70.00" y1="131.25" x2="785.00" y2="131.25" stroke="#e5e7eb" stroke-width="1.2"/>\n<line x1="65.00" y1="45.00" x2="70.00" y2="45.00" stroke="#334155" stroke-width="1.2"/>\n<text x="60.00" y="49.00" font-family="Arial, sans-serif" font-size="11" text-anchor="end">1.00</text>\n<line x1="70.00" y1="45.00" x2="785.00" y2="45.00" stroke="#e5e7eb" stroke-width="1.2"/>\n<rect x="110.50" y="390.00" width="18.00" height="0.00" rx="1" fill="#ef4444" stroke="#ef4444"/>\n<rect x="132.50" y="134.70" width="18.00" height="255.30" rx="1" fill="#f59e0b" stroke="#f59e0b"/>\n<rect x="154.50" y="390.00" width="18.00" height="0.00" rx="1" fill="#3b82f6" stroke="#3b82f6"/>\n<text x="141.50" y="434.00" font-family="Arial, sans-serif" font-size="11" text-anchor="middle">Direct</text>\n<rect x="253.50" y="353.08" width="18.00" height="36.91" rx="1" fill="#ef4444" stroke="#ef4444"/>\n<rect x="275.50" y="182.66" width="18.00" height="207.34" rx="1" fill="#f59e0b" stroke="#f59e0b"/>\n<rect x="297.50" y="246.48" width="18.00" height="143.52" rx="1" fill="#3b82f6" stroke="#3b82f6"/>\n<text x="284.50" y="434.00" font-family="Arial, sans-serif" font-size="11" text-anchor="middle">Tool</text>\n<rect x="396.50" y="292.37" width="18.00" height="97.63" rx="1" fill="#ef4444" stroke="#ef4444"/>\n<rect x="418.50" y="215.78" width="18.00" height="174.22" rx="1" fill="#f59e0b" stroke="#f59e0b"/>\n<rect x="440.50" y="334.80" width="18.00" height="55.20" rx="1" fill="#3b82f6" stroke="#3b82f6"/>\n<text x="427.50" y="434.00" font-family="Arial, sans-serif" font-size="11" text-anchor="middle">Difficulty</text>\n<rect x="539.50" y="65.70" width="18.00" height="324.30" rx="1" fill="#ef4444" stroke="#ef4444"/>\n<rect x="561.50" y="390.00" width="18.00" height="0.00" rx="1" fill="#f59e0b" stroke="#f59e0b"/>\n<rect x="583.50" y="390.00" width="18.00" height="0.00" rx="1" fill="#3b82f6" stroke="#3b82f6"/>\n<text x="570.50" y="434.00" font-family="Arial, sans-serif" font-size="11" text-anchor="middle">Always-full</text>\n<rect x="682.50" y="390.00" width="18.00" height="0.00" rx="1" fill="#ef4444" stroke="#ef4444"/>\n<rect x="704.50" y="390.00" width="18.00" height="0.00" rx="1" fill="#f59e0b" stroke="#f59e0b"/>\n<rect x="726.50" y="390.00" width="18.00" height="0.00" rx="1" fill="#3b82f6" stroke="#3b82f6"/>\n<text x="713.50" y="434.00" font-family="Arial, sans-serif" font-size="11" text-anchor="middle">GapHarness</text>\n<text x="450.00" y="462.00" font-family="Arial, sans-serif" font-size="12" text-anchor="middle">System</text>\n<text x="20.00" y="235.00" font-family="Arial, sans-serif" font-size="12" text-anchor="middle" transform="rotate(-90 20.00 235.00)">Rate (not mutually exclusive)</text>\n<rect x="680.00" y="30.00" width="11.00" height="11.00" rx="1" fill="#ef4444" stroke="#ef4444"/>\n<text x="698.00" y="40.00" font-family="Arial, sans-serif" font-size="11" text-anchor="start">Over</text>\n<rect x="680.00" y="50.00" width="11.00" height="11.00" rx="1" fill="#f59e0b" stroke="#f59e0b"/>\n<text x="698.00" y="60.00" font-family="Arial, sans-serif" font-size="11" text-anchor="start">Under</text>\n<rect x="680.00" y="70.00" width="11.00" height="11.00" rx="1" fill="#3b82f6" stroke="#3b82f6"/>\n<text x="698.00" y="80.00" font-family="Arial, sans-serif" font-size="11" text-anchor="start">Wrong</text>\n</svg>
