<svg xmlns="http://www.w3.org/2000/svg" width="760" height="470" viewBox="0 0 760 470">\n<rect width="100%" height="100%" fill="white"/>\n<line x1="70.00" y1="45.00" x2="70.00" y2="405.00" stroke="#334155" stroke-width="1.2"/>\n<line x1="70.00" y1="405.00" x2="590.00" y2="405.00" stroke="#334155" stroke-width="1.2"/>\n<line x1="70.00" y1="405.00" x2="70.00" y2="410.00" stroke="#334155" stroke-width="1.2"/>\n<text x="70.00" y="427.00" font-family="Arial, sans-serif" font-size="11" text-anchor="middle">0</text>\n<line x1="200.00" y1="405.00" x2="200.00" y2="410.00" stroke="#334155" stroke-width="1.2"/>\n<text x="200.00" y="427.00" font-family="Arial, sans-serif" font-size="11" text-anchor="middle">4</text>\n<line x1="330.00" y1="405.00" x2="330.00" y2="410.00" stroke="#334155" stroke-width="1.2"/>\n<text x="330.00" y="427.00" font-family="Arial, sans-serif" font-size="11" text-anchor="middle">8</text>\n<line x1="460.00" y1="405.00" x2="460.00" y2="410.00" stroke="#334155" stroke-width="1.2"/>\n<text x="460.00" y="427.00" font-family="Arial, sans-serif" font-size="11" text-anchor="middle">12</text>\n<line x1="590.00" y1="405.00" x2="590.00" y2="410.00" stroke="#334155" stroke-width="1.2"/>\n<text x="590.00" y="427.00" font-family="Arial, sans-serif" font-size="11" text-anchor="middle">16</text>\n<line x1="65.00" y1="405.00" x2="70.00" y2="405.00" stroke="#334155" stroke-width="1.2"/>\n<text x="60.00" y="409.00" font-family="Arial, sans-serif" font-size="11" text-anchor="end">0.00</text>\n<line x1="70.00" y1="405.00" x2="590.00" y2="405.00" stroke="#e5e7eb" stroke-width="1.2"/>\n<line x1="65.00" y1="315.00" x2="70.00" y2="315.00" stroke="#334155" stroke-width="1.2"/>\n<text x="60.00" y="319.00" font-family="Arial, sans-serif" font-size="11" text-anchor="end">0.25</text>\n<line x1="70.00" y1="315.00" x2="590.00" y2="315.00" stroke="#e5e7eb" stroke-width="1.2"/>\n<line x1="65.00" y1="225.00" x2="70.00" y2="225.00" stroke="#334155" stroke-width="1.2"/>\n<text x="60.00" y="229.00" font-family="Arial, sans-serif" font-size="11" text-anchor="end">0.50</text>\n<line x1="70.00" y1="225.00" x2="590.00" y2="225.00" stroke="#e5e7eb" stroke-width="1.2"/>\n<line x1="65.00" y1="135.00" x2="70.00" y2="135.00" stroke="#334155" stroke-width="1.2"/>\n<text x="60.00" y="139.00" font-family="Arial, sans-serif" font-size="11" text-anchor="end">0.75</text>\n<line x1="70.00" y1="135.00" x2="590.00" y2="135.00" stroke="#e5e7eb" stroke-width="1.2"/>\n<line x1="65.00" y1="45.00" x2="70.00" y2="45.00" stroke="#334155" stroke-width="1.2"/>\n<text x="60.00" y="49.00" font-family="Arial, sans-serif" font-size="11" text-anchor="end">1.00</text>\n<line x1="70.00" y1="45.00" x2="590.00" y2="45.00" stroke="#e5e7eb" stroke-width="1.2"/>\n<circle cx="70.00" cy="333.00" r="5.00" fill="#64748b"/>\n<text x="78.00" y="325.00" font-family="Arial, sans-serif" font-size="11" text-anchor="start">Direct</text>\n<circle cx="138.35" cy="282.96" r="5.00" fill="#3b82f6"/>\n<text x="146.35" y="274.96" font-family="Arial, sans-serif" font-size="11" text-anchor="start">Tool Router</text>\n<circle cx="182.42" cy="248.40" r="5.00" fill="#8b5cf6"/>\n<text x="190.42" y="240.40" font-family="Arial, sans-serif" font-size="11" text-anchor="start">Difficulty</text>\n<circle cx="590.00" cy="66.60" r="5.00" fill="#ef4444"/>\n<text x="518.00" y="54.60" font-family="Arial, sans-serif" font-size="11" text-anchor="end">Always-full</text>\n<circle cx="189.37" cy="45.00" r="5.00" fill="#16a34a"/>\n<text x="199.37" y="31.00" font-family="Arial, sans-serif" font-size="11" text-anchor="start">GapHarness</text>\n<circle cx="189.37" cy="45.00" r="5.00" fill="#0f766e"/>\n<text x="199.37" y="61.00" font-family="Arial, sans-serif" font-size="11" text-anchor="start">Oracle</text>\n<text x="330.00" y="458.00" font-family="Arial, sans-serif" font-size="12" text-anchor="middle">Average cost</text>\n<text x="20.00" y="225.00" font-family="Arial, sans-serif" font-size="12" text-anchor="middle" transform="rotate(-90 20.00 225.00)">Harness success</text>\n</svg>
