<svg xmlns="http://www.w3.org/2000/svg" width="760" height="420" viewBox="0 0 760 420">
<rect width="100%" height="100%" fill="white"/>
<line x1="55.00" y1="365.00" x2="705.00" y2="365.00" stroke="#334155" stroke-width="1.5"/>
<line x1="55.00" y1="55.00" x2="55.00" y2="365.00" stroke="#334155" stroke-width="1.5"/>
<text x="380.00" y="412.00" font-family="Arial, sans-serif" font-size="12" text-anchor="middle">System</text>
<text x="18.00" y="210.00" font-family="Arial, sans-serif" font-size="12" text-anchor="middle" transform="rotate(-90 18.00 210.00)">Necessity rate</text>
<rect x="85.17" y="55.00" width="48.00" height="310.00" rx="4" fill="#64748b" stroke="#64748b"/>
<text x="109.17" y="392.00" font-family="Arial, sans-serif" font-size="10" text-anchor="middle">direct</text>
<rect x="193.50" y="74.25" width="48.00" height="290.75" rx="4" fill="#3b82f6" stroke="#3b82f6"/>
<text x="217.50" y="392.00" font-family="Arial, sans-serif" font-size="10" text-anchor="middle">tool_router</text>
<rect x="301.83" y="98.59" width="48.00" height="266.41" rx="4" fill="#8b5cf6" stroke="#8b5cf6"/>
<text x="325.83" y="392.00" font-family="Arial, sans-serif" font-size="10" text-anchor="middle">difficulty_router</text>
<rect x="410.17" y="213.79" width="48.00" height="151.21" rx="4" fill="#ef4444" stroke="#ef4444"/>
<text x="434.17" y="392.00" font-family="Arial, sans-serif" font-size="10" text-anchor="middle">always_full</text>
<rect x="518.50" y="55.00" width="48.00" height="310.00" rx="4" fill="#16a34a" stroke="#16a34a"/>
<text x="542.50" y="392.00" font-family="Arial, sans-serif" font-size="10" text-anchor="middle">gapharness</text>
<rect x="626.83" y="55.00" width="48.00" height="310.00" rx="4" fill="#0f766e" stroke="#0f766e"/>
<text x="650.83" y="392.00" font-family="Arial, sans-serif" font-size="10" text-anchor="middle">oracle_minimal</text>
</svg>
