<svg xmlns="http://www.w3.org/2000/svg" width="760" height="420" viewBox="0 0 760 420">
<rect width="100%" height="100%" fill="white"/>
<line x1="55.00" y1="365.00" x2="705.00" y2="365.00" stroke="#334155" stroke-width="1.5"/>
<line x1="55.00" y1="55.00" x2="55.00" y2="365.00" stroke="#334155" stroke-width="1.5"/>
<text x="380.00" y="412.00" font-family="Arial, sans-serif" font-size="12" text-anchor="middle">System</text>
<text x="18.00" y="210.00" font-family="Arial, sans-serif" font-size="12" text-anchor="middle" transform="rotate(-90 18.00 210.00)">Rate</text>
<rect x="81.67" y="365.00" width="55.00" height="0.00" rx="4" fill="#ef4444" stroke="#ef4444"/>
<rect x="81.67" y="135.60" width="55.00" height="229.40" rx="4" fill="#f59e0b" stroke="#f59e0b"/>
<rect x="81.67" y="135.60" width="55.00" height="0.00" rx="4" fill="#3b82f6" stroke="#3b82f6"/>
<text x="109.17" y="392.00" font-family="Arial, sans-serif" font-size="10" text-anchor="middle">direct</text>
<rect x="190.00" y="331.83" width="55.00" height="33.17" rx="4" fill="#ef4444" stroke="#ef4444"/>
<rect x="190.00" y="145.52" width="55.00" height="186.31" rx="4" fill="#f59e0b" stroke="#f59e0b"/>
<rect x="190.00" y="16.56" width="55.00" height="128.96" rx="4" fill="#3b82f6" stroke="#3b82f6"/>
<text x="217.50" y="392.00" font-family="Arial, sans-serif" font-size="10" text-anchor="middle">tool_router</text>
<rect x="298.33" y="277.27" width="55.00" height="87.73" rx="4" fill="#ef4444" stroke="#ef4444"/>
<rect x="298.33" y="120.72" width="55.00" height="156.55" rx="4" fill="#f59e0b" stroke="#f59e0b"/>
<rect x="298.33" y="71.12" width="55.00" height="49.60" rx="4" fill="#3b82f6" stroke="#3b82f6"/>
<text x="325.83" y="392.00" font-family="Arial, sans-serif" font-size="10" text-anchor="middle">difficulty_router</text>
<rect x="406.67" y="73.60" width="55.00" height="291.40" rx="4" fill="#ef4444" stroke="#ef4444"/>
<rect x="406.67" y="73.60" width="55.00" height="0.00" rx="4" fill="#f59e0b" stroke="#f59e0b"/>
<rect x="406.67" y="73.60" width="55.00" height="0.00" rx="4" fill="#3b82f6" stroke="#3b82f6"/>
<text x="434.17" y="392.00" font-family="Arial, sans-serif" font-size="10" text-anchor="middle">always_full</text>
<rect x="515.00" y="365.00" width="55.00" height="0.00" rx="4" fill="#ef4444" stroke="#ef4444"/>
<rect x="515.00" y="365.00" width="55.00" height="0.00" rx="4" fill="#f59e0b" stroke="#f59e0b"/>
<rect x="515.00" y="365.00" width="55.00" height="0.00" rx="4" fill="#3b82f6" stroke="#3b82f6"/>
<text x="542.50" y="392.00" font-family="Arial, sans-serif" font-size="10" text-anchor="middle">gapharness</text>
<rect x="623.33" y="365.00" width="55.00" height="0.00" rx="4" fill="#ef4444" stroke="#ef4444"/>
<rect x="623.33" y="365.00" width="55.00" height="0.00" rx="4" fill="#f59e0b" stroke="#f59e0b"/>
<rect x="623.33" y="365.00" width="55.00" height="0.00" rx="4" fill="#3b82f6" stroke="#3b82f6"/>
<text x="650.83" y="392.00" font-family="Arial, sans-serif" font-size="10" text-anchor="middle">oracle_minimal</text>
<rect x="570.00" y="20.00" width="12.00" height="12.00" rx="4" fill="#ef4444" stroke="#ef4444"/>
<text x="590.00" y="30.00" font-family="Arial, sans-serif" font-size="12" text-anchor="start">Over</text>
<rect x="570.00" y="42.00" width="12.00" height="12.00" rx="4" fill="#f59e0b" stroke="#f59e0b"/>
<text x="590.00" y="52.00" font-family="Arial, sans-serif" font-size="12" text-anchor="start">Under</text>
<rect x="570.00" y="64.00" width="12.00" height="12.00" rx="4" fill="#3b82f6" stroke="#3b82f6"/>
<text x="590.00" y="74.00" font-family="Arial, sans-serif" font-size="12" text-anchor="start">Wrong</text>
</svg>
