<svg xmlns="http://www.w3.org/2000/svg" width="760" height="420" viewBox="0 0 760 420">
<rect width="100%" height="100%" fill="white"/>
<line x1="60.00" y1="360.00" x2="700.00" y2="360.00" stroke="#334155" stroke-width="1.5"/>
<line x1="60.00" y1="60.00" x2="60.00" y2="360.00" stroke="#334155" stroke-width="1.5"/>
<text x="380.00" y="412.00" font-family="Arial, sans-serif" font-size="12" text-anchor="middle">System</text>
<text x="18.00" y="210.00" font-family="Arial, sans-serif" font-size="12" text-anchor="middle" transform="rotate(-90 18.00 210.00)">Avg regret</text>
<line x1="60.00" y1="291.13" x2="700.00" y2="291.13" stroke="#64748b" stroke-width="1.5"/>
<rect x="89.33" y="291.13" width="48.00" height="68.87" rx="4" fill="#64748b" stroke="#64748b"/>
<text x="113.33" y="392.00" font-family="Arial, sans-serif" font-size="10" text-anchor="middle">direct</text>
<rect x="196.00" y="291.13" width="48.00" height="29.44" rx="4" fill="#3b82f6" stroke="#3b82f6"/>
<text x="220.00" y="392.00" font-family="Arial, sans-serif" font-size="10" text-anchor="middle">tool_router</text>
<rect x="302.67" y="291.13" width="48.00" height="4.01" rx="4" fill="#8b5cf6" stroke="#8b5cf6"/>
<text x="326.67" y="392.00" font-family="Arial, sans-serif" font-size="10" text-anchor="middle">difficulty_router</text>
<rect x="409.33" y="60.00" width="48.00" height="231.13" rx="4" fill="#ef4444" stroke="#ef4444"/>
<text x="433.33" y="392.00" font-family="Arial, sans-serif" font-size="10" text-anchor="middle">always_full</text>
<rect x="516.00" y="291.13" width="48.00" height="0.00" rx="4" fill="#16a34a" stroke="#16a34a"/>
<text x="540.00" y="392.00" font-family="Arial, sans-serif" font-size="10" text-anchor="middle">gapharness</text>
<rect x="622.67" y="291.13" width="48.00" height="0.00" rx="4" fill="#0f766e" stroke="#0f766e"/>
<text x="646.67" y="392.00" font-family="Arial, sans-serif" font-size="10" text-anchor="middle">oracle_minimal</text>
</svg>
